<svg xmlns="http://www.w3.org/2000/svg" style="display: none;"><symbol id="sketch" viewBox="0 0 511.998 511.998"><title>sketch</title><g> <g> <path d="M74.664,85.179c-17.673,0-32,14.327-32,32v85.333h21.333v-85.333c0-5.891,4.776-10.667,10.667-10.667h256V85.179H74.664z"/> </g> </g><g> <g> <path d="M74.664,405.179c-5.891,0-10.667-4.776-10.667-10.667V287.845H42.664v106.667c0,17.673,14.327,32,32,32h106.667v-21.333 H74.664z"/> </g> </g><g> <g> <path d="M338.206,432.688L79.155,173.637c-4.165-4.164-10.917-4.164-15.083,0L3.123,234.587c-4.164,4.165-4.164,10.917,0,15.083 L262.174,508.72c2,2.001,4.713,3.125,7.541,3.125c2.829-0.001,5.541-1.125,7.541-3.125l60.949-60.949 C342.37,443.605,342.37,436.853,338.206,432.688z M269.715,486.096L25.747,242.128l45.867-45.867L315.582,440.23L269.715,486.096z "/> </g> </g><g> <g> <path d="M469.331,405.179h-160v21.333h117.333v53.333c0,5.891,4.776,10.667,10.667,10.667h32 c23.564,0,42.667-19.102,42.667-42.667C511.998,424.281,492.895,405.179,469.331,405.179z M469.331,469.179h-21.333v-42.667 h21.333c11.782,0,21.333,9.551,21.333,21.333C490.664,459.628,481.113,469.179,469.331,469.179z"/> </g> </g><g> <g> <path d="M469.331,85.179h-53.333v21.333h53.333c11.782,0,21.333,9.551,21.333,21.333v320h21.333v-320 C511.998,104.281,492.895,85.179,469.331,85.179z"/> </g> </g><g> <g> <rect x="164.042" y="314.513" transform="matrix(0.7071 -0.7071 0.7071 0.7071 -175.2621 227.2397)" width="45.259" height="21.333"/> </g> </g><g> <g> <rect x="121.376" y="271.846" transform="matrix(0.7071 -0.7071 0.7071 0.7071 -157.5885 184.5736)" width="45.259" height="21.333"/> </g> </g><g> <g> <rect x="206.686" y="357.18" transform="matrix(0.7071 -0.7071 0.7071 0.7071 -192.9419 269.8904)" width="45.259" height="21.333"/> </g> </g><g> <g> <rect x="249.372" y="399.868" transform="matrix(0.7071 -0.7071 0.7071 0.7071 -210.6241 312.5771)" width="45.259" height="21.333"/> </g> </g><g> <g> <rect x="78.679" y="229.18" transform="matrix(0.7071 -0.7071 0.7071 0.7071 -139.9243 141.885)" width="45.259" height="21.333"/> </g> </g><g> <g> <path d="M460.094,23.824L445.352,9.083c-12.473-11.907-32.103-11.907-44.576,0L238.579,171.28c-4.164,4.165-4.164,10.917,0,15.083 l44.235,44.235c1.995,2.008,4.711,3.133,7.541,3.125c2.829-0.001,5.541-1.125,7.541-3.125L460.094,68.4 c0.005-0.005,0.01-0.01,0.015-0.015C472.41,56.076,472.403,36.125,460.094,23.824z M445.022,53.307L290.355,207.973 l-29.152-29.152L415.87,24.165c4.028-3.849,10.372-3.849,14.4,0l14.752,14.731c0.001,0.002,0.003,0.003,0.005,0.005 C449.003,42.88,449.001,49.33,445.022,53.307z"/> </g> </g><g> <g> <path d="M286.931,212.944l-46.037,15.371l15.371-46.112l-20.267-6.752l-22.123,66.357c-0.362,1.088-0.547,2.227-0.547,3.373 c0.001,5.891,4.778,10.666,10.669,10.664c1.129,0.004,2.252-0.169,3.328-0.512l66.357-22.123L286.931,212.944z"/> </g> </g><g> <g> <rect x="390.275" y="36.943" transform="matrix(0.7071 -0.7071 0.7071 0.7071 69.1923 303.4905)" width="21.333" height="62.56"/> </g> </g><g> <g> <rect x="223.998" y="234.512" width="160" height="21.333"/> </g> </g><g> <g> <rect x="405.331" y="234.512" width="21.333" height="21.333"/> </g> </g><g> <g> <rect x="447.998" y="234.512" width="21.333" height="21.333"/> </g> </g></symbol><symbol id="technology" viewBox="0 0 64 64"><title>technology</title><path d="m16.816 53h2.369c.414 1.161 1.514 2 2.816 2 1.654 0 3-1.346 3-3s-1.346-3-3-3c-1.302 0-2.402.839-2.816 2h-2.369c-.414-1.161-1.514-2-2.816-2-1.654 0-3 1.346-3 3s1.346 3 3 3c1.302 0 2.402-.839 2.816-2zm5.184-2c.551 0 1 .448 1 1s-.449 1-1 1-1-.448-1-1 .449-1 1-1zm-9 1c0-.552.449-1 1-1s1 .448 1 1-.449 1-1 1-1-.448-1-1z"/><path d="m51.184 49c.414 1.161 1.514 2 2.816 2 1.654 0 3-1.346 3-3s-1.346-3-3-3c-1.302 0-2.402.839-2.816 2h-6.184c-.552 0-1 .447-1 1v5.184c-1.161.414-2 1.514-2 2.816 0 1.654 1.346 3 3 3s3-1.346 3-3c0-1.302-.839-2.402-2-2.816v-4.184zm2.816-2c.551 0 1 .448 1 1s-.449 1-1 1-1-.448-1-1 .449-1 1-1zm-9 10c-.551 0-1-.448-1-1s.449-1 1-1 1 .448 1 1-.449 1-1 1z"/><path d="m32 2c-16.542 0-30 13.458-30 30 0 .553.448 1 1 1h14v3.184c-.847.302-1.514.969-1.816 1.816h-4.77l-2.707-2.707c-.187-.188-.442-.293-.707-.293h-4v2h3.586l2.707 2.707c.187.188.442.293.707.293h5.184c.302.847.969 1.514 1.816 1.816v2.184h-6.184c-.414-1.161-1.514-2-2.816-2-1.654 0-3 1.346-3 3s1.346 3 3 3c1.302 0 2.402-.839 2.816-2h7.184c.552 0 1-.447 1-1v-3.184c1.161-.414 2-1.514 2-2.816s-.839-2.402-2-2.816v-3.184h4v11c0 .266.105.52.293.707l3.707 3.707v7.77c-1.161.414-2 1.514-2 2.816 0 1.654 1.346 3 3 3s3-1.346 3-3c0-1.302-.839-2.402-2-2.816v-7.77l1.707-1.707c.188-.187.293-.441.293-.707v-5.184c1.161-.414 2-1.514 2-2.816s-.839-2.402-2-2.816v-2.184h9.586l-2.293 2.293c-.188.187-.293.441-.293.707v2.184c-1.161.414-2 1.514-2 2.816s.839 2.402 2 2.816v2.77l-1.707 1.707c-.188.187-.293.441-.293.707v6.184c-1.161.414-2 1.514-2 2.816 0 1.654 1.346 3 3 3s3-1.346 3-3c0-1.302-.839-2.402-2-2.816v-5.77l1.707-1.707c.188-.187.293-.441.293-.707v-3.184c.847-.302 1.514-.969 1.816-1.816h5.184c.265 0 .52-.105.707-.293l2.707-2.707h4.77c.414 1.161 1.514 2 2.816 2 1.654 0 3-1.346 3-3 0-1.302-.839-2.402-2-2.816v-2.184h2c.552 0 1-.447 1-1 0-16.542-13.458-30-30-30zm-24 44c-.551 0-1-.448-1-1s.449-1 1-1 1 .448 1 1-.449 1-1 1zm10-6c-.551 0-1-.448-1-1s.449-1 1-1 1 .448 1 1-.449 1-1 1zm19 19c-.551 0-1-.448-1-1s.449-1 1-1 1 .448 1 1-.449 1-1 1zm19.247-40.988c-1.572.622-3.285 1.177-5.109 1.663-.862-2.723-2-5.229-3.364-7.447 1.09-.277 2.109-.586 3.06-.921 2.129 1.94 3.961 4.198 5.413 6.705zm-15.254 12.988c-.025-2.491-.141-4.996-.347-7.437 3.193-.324 6.263-.825 9.117-1.486.72 2.79 1.144 5.791 1.219 8.923zm-4.3-19.152c-1.534.095-3.1.152-4.693.152s-3.159-.057-4.693-.152c1.399-5.051 3.197-7.848 4.693-7.848s3.294 2.797 4.693 7.848zm-.874-7.279c3.27.987 6.234 3.223 8.66 6.344-1.799.339-3.735.595-5.75.778-.778-2.948-1.75-5.415-2.91-7.122zm1.373 9.254c.527 2.289.974 4.94 1.291 7.926-2.124.163-4.293.251-6.483.251s-4.359-.088-6.482-.251c.317-2.986.764-5.637 1.291-7.926 1.694.114 3.43.177 5.191.177s3.497-.063 5.192-.177zm-11.921-2.133c-2.015-.183-3.951-.439-5.75-.778 2.426-3.122 5.389-5.357 8.66-6.344-1.16 1.708-2.132 4.175-2.91 7.122zm-.474 1.964c-.537 2.432-.955 5.116-1.253 7.92-3.069-.311-6.016-.789-8.754-1.419.879-2.764 2.057-5.28 3.47-7.463 2.03.42 4.227.742 6.537.962zm-1.444 9.909c-.206 2.441-.322 4.946-.347 7.437h-9.99c.075-3.131.499-6.133 1.219-8.923 2.855.662 5.925 1.162 9.118 1.486zm1.979.176c2.186.17 4.417.261 6.668.261s4.482-.091 6.668-.261c.187 2.257.301 4.681.324 7.261h-13.985c.024-2.579.138-5.004.325-7.261zm15.125-2.165c-.298-2.804-.716-5.488-1.253-7.92 2.309-.22 4.507-.542 6.537-.961 1.413 2.184 2.591 4.7 3.47 7.463-2.738.629-5.685 1.107-8.754 1.418zm8.582-11.769c-.771.238-1.588.457-2.442.659-1.224-1.694-2.591-3.175-4.073-4.407 2.348.955 4.535 2.223 6.515 3.748zm-31.637.658c-.854-.202-1.67-.421-2.442-.659 1.981-1.524 4.167-2.793 6.515-3.748-1.482 1.232-2.849 2.714-4.073 4.407zm-4.236.845c.951.335 1.969.644 3.06.921-1.364 2.218-2.502 4.724-3.364 7.447-1.823-.486-3.537-1.041-5.109-1.663 1.452-2.508 3.284-4.766 5.413-6.705zm-6.352 8.481c1.685.678 3.526 1.281 5.49 1.806-.765 2.946-1.211 6.11-1.287 9.406h-7c.142-4.009 1.137-7.801 2.797-11.212zm21.186 40.211c-.551 0-1-.448-1-1s.449-1 1-1 1 .448 1 1-.449 1-1 1zm2-21c-.551 0-1-.448-1-1s.449-1 1-1 1 .448 1 1-.449 1-1 1zm-1-3.816c-1.161.414-2 1.514-2 2.816s.839 2.402 2 2.816v4.77l-1 1-3-3v-10.586h4zm10 6.816c-.551 0-1-.448-1-1s.449-1 1-1 1 .448 1 1-.449 1-1 1zm19-3c-.551 0-1-.448-1-1s.449-1 1-1 1 .448 1 1-.449 1-1 1zm-1-3.816c-.847.302-1.514.969-1.816 1.816h-5.184c-.265 0-.52.105-.707.293l-2.707 2.707h-4.77c-.302-.847-.969-1.514-1.816-1.816v-1.77l3.414-3.414h13.586zm-4.018-4.184c-.076-3.296-.522-6.46-1.287-9.406 1.964-.524 3.805-1.128 5.49-1.806 1.661 3.412 2.656 7.204 2.797 11.212z"/></symbol><symbol id="vinyl" viewBox="0 0 512 512"><title>vinyl</title><path d="m256 0c-141.159 0-256 114.841-256 256s114.841 256 256 256 256-114.841 256-256-114.841-256-256-256zm0 492c-130.131 0-236-105.87-236-236s105.869-236 236-236 236 105.869 236 236-105.869 236-236 236z"/><path d="m256 60c5.523 0 10-4.477 10-10s-4.477-10-10-10c-57.696 0-111.938 22.468-152.735 63.265-40.798 40.797-63.265 95.039-63.265 152.735 0 5.523 4.477 10 10 10s10-4.477 10-10c0-108.075 87.925-196 196-196z"/><path d="m462 246c-5.523 0-10 4.477-10 10 0 108.075-87.925 196-196 196-5.523 0-10 4.477-10 10s4.477 10 10 10c57.696 0 111.938-22.468 152.735-63.265s63.265-95.039 63.265-152.735c0-5.523-4.477-10-10-10z"/><path d="m256 100c5.523 0 10-4.477 10-10s-4.477-10-10-10c-97.047 0-176 78.953-176 176 0 5.523 4.477 10 10 10s10-4.477 10-10c0-86.019 69.981-156 156-156z"/><path d="m256 412c-5.523 0-10 4.477-10 10s4.477 10 10 10c97.047 0 176-78.954 176-176 0-5.523-4.477-10-10-10s-10 4.477-10 10c0 86.019-69.981 156-156 156z"/><path d="m256 140c5.523 0 10-4.477 10-10s-4.477-10-10-10c-74.991 0-136 61.009-136 136 0 5.523 4.477 10 10 10s10-4.477 10-10c0-63.962 52.037-116 116-116z"/><path d="m256 372c-5.523 0-10 4.477-10 10s4.477 10 10 10c74.991 0 136-61.01 136-136 0-5.523-4.477-10-10-10s-10 4.477-10 10c0 63.963-52.038 116-116 116z"/><path d="m342 256c0-47.497-38.504-86-86-86-47.497 0-86 38.503-86 86s38.504 86 86 86c47.497 0 86-38.503 86-86zm-111 0c0-13.807 11.193-25 25-25s25 11.193 25 25-11.193 25-25 25-25-11.193-25-25z"/></symbol></svg>